<svg width="375" height="206" viewBox="0 0 375 206" fill="none" xmlns="http://www.w3.org/2000/svg">
<mask id="mask0_3366_35428" style="mask-type:alpha" maskUnits="userSpaceOnUse" x="-242" y="0" width="858" height="206">
<rect x="-242" width="858" height="205.67" fill="#C4C4C4"/>
</mask>
<g mask="url(#mask0_3366_35428)">
<path d="M85.7923 139.784C62.6349 139.784 43.862 125.825 43.862 108.607C43.862 91.3881 62.6349 77.4297 85.7923 77.4297C108.95 77.4297 127.723 91.3881 127.723 108.607C127.723 125.825 108.95 139.784 85.7923 139.784Z" fill="#F0FAFE"/>
<path d="M46.3092 137.706C31.8358 137.706 20.1028 128.982 20.1028 118.22C20.1028 107.458 31.8358 98.7344 46.3092 98.7344C60.7826 98.7344 72.5156 107.458 72.5156 118.22C72.5156 128.982 60.7826 137.706 46.3092 137.706Z" fill="#F0FAFE"/>
<path d="M11.0162 137.706C-3.45721 137.706 -15.1902 128.982 -15.1902 118.22C-15.1902 107.458 -3.45721 98.7344 11.0162 98.7344C25.4896 98.7344 37.2227 107.458 37.2227 118.22C37.2227 128.982 25.4896 137.706 11.0162 137.706Z" fill="#F0FAFE"/>
<path d="M-16.9369 137.706C-31.4103 137.706 -43.1434 128.982 -43.1434 118.22C-43.1434 107.458 -31.4103 98.7344 -16.9369 98.7344C-2.4635 98.7344 9.26953 107.458 9.26953 118.22C9.26953 128.982 -2.4635 137.706 -16.9369 137.706Z" fill="#F0FAFE"/>
<path d="M31.8068 126.277C10.8685 126.277 -6.10522 113.656 -6.10522 98.0877C-6.10522 82.5192 10.8685 69.8984 31.8068 69.8984C52.745 69.8984 69.7188 82.5192 69.7188 98.0877C69.7188 113.656 52.745 126.277 31.8068 126.277Z" fill="#F0FAFE"/>
<path d="M300.38 147.241C286.755 147.241 275.71 137.293 275.71 125.023C275.71 112.752 286.755 102.805 300.38 102.805C314.005 102.805 325.051 112.752 325.051 125.023C325.051 137.293 314.005 147.241 300.38 147.241Z" fill="#F4FBFF"/>
<path d="M273.947 135.811C260.321 135.811 249.276 125.864 249.276 113.593C249.276 101.322 260.321 91.375 273.947 91.375C287.572 91.375 298.617 101.322 298.617 113.593C298.617 125.864 287.572 135.811 273.947 135.811Z" fill="#F4FBFF"/>
<path d="M337.74 150.092C324.114 150.092 313.069 140.145 313.069 127.874C313.069 115.604 324.114 105.656 337.74 105.656C351.365 105.656 362.41 115.604 362.41 127.874C362.41 140.145 351.365 150.092 337.74 150.092Z" fill="#F4FBFF"/>
<path d="M370.161 144.381C356.536 144.381 345.491 134.434 345.491 122.163C345.491 109.893 356.536 99.9453 370.161 99.9453C383.787 99.9453 394.832 109.893 394.832 122.163C394.832 134.434 383.787 144.381 370.161 144.381Z" fill="#F4FBFF"/>
<path d="M302.496 120.893C286.729 120.893 273.948 109.525 273.948 95.5014C273.948 81.4778 286.729 70.1094 302.496 70.1094C318.262 70.1094 331.043 81.4778 331.043 95.5014C331.043 109.525 318.262 120.893 302.496 120.893Z" fill="#F4FBFF"/>
<path d="M261.258 134.859C243.935 134.859 229.891 122.283 229.891 106.77C229.891 91.256 243.935 78.6797 261.258 78.6797C278.582 78.6797 292.625 91.256 292.625 106.77C292.625 122.283 278.582 134.859 261.258 134.859Z" fill="#F4FBFF"/>
<path d="M325.048 127.988C313.714 127.988 304.525 119.713 304.525 109.506C304.525 99.2982 313.714 91.0234 325.048 91.0234C336.382 91.0234 345.57 99.2982 345.57 109.506C345.57 119.713 336.382 127.988 325.048 127.988Z" fill="#F4FBFF"/>
<path d="M387.785 138.351C369.488 138.351 354.656 124.993 354.656 108.515C354.656 92.0375 369.488 78.6797 387.785 78.6797C406.082 78.6797 420.914 92.0375 420.914 108.515C420.914 124.993 406.082 138.351 387.785 138.351Z" fill="#F4FBFF"/>
<path d="M347.109 120.747C327.398 120.747 311.418 106.356 311.418 88.604C311.418 70.8519 327.398 56.4609 347.109 56.4609C366.821 56.4609 382.801 70.8519 382.801 88.604C382.801 106.356 366.821 120.747 347.109 120.747Z" fill="#F4FBFF"/>
<path d="M292.531 148.044C272.82 148.044 256.84 133.653 256.84 115.901C256.84 98.1488 272.82 83.7578 292.531 83.7578C312.243 83.7578 328.223 98.1488 328.223 115.901C328.223 133.653 312.243 148.044 292.531 148.044Z" fill="#F4FBFF"/>
<path d="M2.90185 199.795C-18.6116 199.795 -36.0518 184.089 -36.0518 164.714C-36.0518 145.339 -18.6116 129.633 2.90185 129.633C24.4153 129.633 41.8555 145.339 41.8555 164.714C41.8555 184.089 24.4153 199.795 2.90185 199.795Z" fill="#F0FAFE"/>
<path d="M-38.8325 181.748C-60.346 181.748 -77.7861 166.042 -77.7861 146.667C-77.7861 127.292 -60.346 111.586 -38.8325 111.586C-17.319 111.586 0.121094 127.292 0.121094 146.667C0.121094 166.042 -17.319 181.748 -38.8325 181.748Z" fill="#F0FAFE"/>
<path d="M61.8901 204.303C40.3767 204.303 22.9365 188.596 22.9365 169.222C22.9365 149.847 40.3767 134.141 61.8901 134.141C83.4036 134.141 100.844 149.847 100.844 169.222C100.844 188.596 83.4036 204.303 61.8901 204.303Z" fill="#F0FAFE"/>
<path d="M113.085 195.279C91.572 195.279 74.1318 179.573 74.1318 160.198C74.1318 140.824 91.572 125.117 113.085 125.117C134.599 125.117 152.039 140.824 152.039 160.198C152.039 179.573 134.599 195.279 113.085 195.279Z" fill="#F0FAFE"/>
<path d="M6.24153 158.193C-18.6526 158.193 -38.8334 140.243 -38.8334 118.1C-38.8334 95.9579 -18.6526 78.0078 6.24153 78.0078C31.1357 78.0078 51.3164 95.9579 51.3164 118.1C51.3164 140.243 31.1357 158.193 6.24153 158.193Z" fill="#F0FAFE"/>
<path d="M41.85 169.404C23.9539 169.404 9.44621 156.338 9.44621 140.221C9.44621 124.104 23.9539 111.039 41.85 111.039C59.7462 111.039 74.2539 124.104 74.2539 140.221C74.2539 156.338 59.7462 169.404 41.85 169.404Z" fill="#F0FAFE"/>
<path d="M140.91 185.757C112.02 185.757 88.6005 164.665 88.6005 138.648C88.6005 112.63 112.02 91.5391 140.91 91.5391C169.799 91.5391 193.219 112.63 193.219 138.648C193.219 164.665 169.799 185.757 140.91 185.757Z" fill="#F0FAFE"/>
<path d="M76.6843 157.965C45.5604 157.965 20.3296 135.243 20.3296 107.213C20.3296 79.1835 45.5604 56.4609 76.6843 56.4609C107.808 56.4609 133.039 79.1835 133.039 107.213C133.039 135.243 107.808 157.965 76.6843 157.965Z" fill="#F0FAFE"/>
<path d="M-9.49147 201.067C-40.6153 201.067 -65.8462 178.344 -65.8462 150.315C-65.8462 122.285 -40.6153 99.5625 -9.49147 99.5625C21.6324 99.5625 46.8633 122.285 46.8633 150.315C46.8633 178.344 21.6324 201.067 -9.49147 201.067Z" fill="#F0FAFE"/>
<path d="M220.511 116.501C233.593 116.501 244.199 107.73 244.199 96.9109C244.199 86.0913 233.593 77.3203 220.511 77.3203C207.429 77.3203 196.824 86.0913 196.824 96.9109C196.824 107.73 207.429 116.501 220.511 116.501Z" fill="#F4FBFF"/>
<path d="M242.816 115.199C250.992 115.199 257.621 109.717 257.621 102.955C257.621 96.1928 250.992 90.7109 242.816 90.7109C234.64 90.7109 228.012 96.1928 228.012 102.955C228.012 109.717 234.64 115.199 242.816 115.199Z" fill="#F4FBFF"/>
<path d="M262.754 115.199C270.93 115.199 277.558 109.717 277.558 102.955C277.558 96.1928 270.93 90.7109 262.754 90.7109C254.577 90.7109 247.949 96.1928 247.949 102.955C247.949 109.717 254.577 115.199 262.754 115.199Z" fill="#F4FBFF"/>
<path d="M278.547 115.199C286.723 115.199 293.351 109.717 293.351 102.955C293.351 96.1928 286.723 90.7109 278.547 90.7109C270.37 90.7109 263.742 96.1928 263.742 102.955C263.742 109.717 270.37 115.199 278.547 115.199Z" fill="#F4FBFF"/>
<path d="M251.007 108.012C262.835 108.012 272.424 100.082 272.424 90.2991C272.424 80.5164 262.835 72.5859 251.007 72.5859C239.179 72.5859 229.59 80.5164 229.59 90.2991C229.59 100.082 239.179 108.012 251.007 108.012Z" fill="#F4FBFF"/>
<path d="M178.946 144.264C155.992 144.264 137.384 128.874 137.384 109.89C137.384 90.9054 155.992 75.5156 178.946 75.5156C201.9 75.5156 220.508 90.9054 220.508 109.89C220.508 128.874 201.9 144.264 178.946 144.264Z" fill="white"/>
<path d="M139.809 141.975C125.463 141.975 113.833 132.357 113.833 120.492C113.833 108.626 125.463 99.0078 139.809 99.0078C154.155 99.0078 165.785 108.626 165.785 120.492C165.785 132.357 154.155 141.975 139.809 141.975Z" fill="white"/>
<path d="M104.824 141.975C90.4781 141.975 78.8481 132.357 78.8481 120.492C78.8481 108.626 90.4781 99.0078 104.824 99.0078C119.171 99.0078 130.801 108.626 130.801 120.492C130.801 132.357 119.171 141.975 104.824 141.975Z" fill="white"/>
<path d="M83.0992 142.046C65.4529 142.046 51.1477 130.209 51.1477 115.609C51.1477 101.008 65.4529 89.1719 83.0992 89.1719C100.746 89.1719 115.051 101.008 115.051 115.609C115.051 130.209 100.746 142.046 83.0992 142.046Z" fill="white"/>
<path d="M125.433 129.371C104.678 129.371 87.8536 115.456 87.8536 98.2908C87.8536 81.1259 104.678 67.2109 125.433 67.2109C146.187 67.2109 163.012 81.1259 163.012 98.2908C163.012 115.456 146.187 129.371 125.433 129.371Z" fill="white"/>
<path d="M-24.8417 143.367C-43.1005 143.367 -57.9021 132.361 -57.9021 118.785C-57.9021 105.209 -43.1005 94.2031 -24.8417 94.2031C-6.58291 94.2031 8.21875 105.209 8.21875 118.785C8.21875 132.361 -6.58291 143.367 -24.8417 143.367Z" fill="white"/>
<path d="M48.7861 119.674C36.8408 118.896 27.6213 111.068 28.1938 102.189C28.7663 93.31 38.914 86.7429 50.8593 87.521C62.8047 88.299 72.0242 96.1275 71.4517 105.006C70.8792 113.885 60.7315 120.452 48.7861 119.674Z" fill="white"/>
<path d="M28.4908 117.286C21.025 116.799 15.2628 111.907 15.6206 106.357C15.9784 100.808 22.3208 96.7036 29.7866 97.1899C37.2524 97.6761 43.0146 102.569 42.6568 108.118C42.299 113.668 35.9567 117.772 28.4908 117.286Z" fill="white"/>
<path d="M10.2877 116.098C2.82188 115.612 -2.94031 110.719 -2.5825 105.17C-2.22469 99.6205 4.11763 95.5161 11.5835 96.0024C19.0493 96.4886 24.8115 101.381 24.4537 106.931C24.0959 112.48 17.7535 116.584 10.2877 116.098Z" fill="white"/>
<path d="M-4.13026 115.161C-11.5961 114.674 -17.3583 109.782 -17.0005 104.232C-16.6427 98.683 -10.3003 94.5786 -2.8345 95.0649C4.63133 95.5511 10.3935 100.444 10.0357 105.993C9.6779 111.543 3.33558 115.647 -4.13026 115.161Z" fill="white"/>
<path d="M21.3896 114.142C10.589 113.439 2.25303 106.36 2.77067 98.3323C3.28831 90.3043 12.4635 84.3666 23.2641 85.07C34.0647 85.7735 42.4007 92.8517 41.883 100.88C41.3654 108.908 32.1902 114.845 21.3896 114.142Z" fill="white"/>
<path d="M10.4436 126.66C2.5592 124.641 -2.70892 118.582 -1.32305 113.127C0.0628098 107.672 7.57786 104.887 15.4623 106.906C23.3467 108.925 28.6148 114.985 27.229 120.44C25.8431 125.895 18.328 128.68 10.4436 126.66Z" fill="white"/>
<path d="M-1.39119 119.35C-6.31895 118.088 -9.61153 114.301 -8.74536 110.892C-7.8792 107.482 -3.18229 105.742 1.74547 107.004C6.67323 108.266 9.9658 112.053 9.09964 115.462C8.23348 118.872 3.53657 120.612 -1.39119 119.35Z" fill="white"/>
<path d="M-5.40262 114.461C-12.5314 112.635 -17.2947 107.157 -16.0416 102.225C-14.7886 97.2924 -7.99374 94.7742 -0.864916 96.6001C6.26391 98.4261 11.0272 103.905 9.77412 108.837C8.52107 113.769 1.72621 116.287 -5.40262 114.461Z" fill="white"/>
<path d="M384.702 126.231C402.328 126.231 416.616 115.608 416.616 102.502C416.616 89.3973 402.328 78.7734 384.702 78.7734C367.077 78.7734 352.789 89.3973 352.789 102.502C352.789 115.608 367.077 126.231 384.702 126.231Z" fill="white"/>
<path d="M346.976 164.866C310.698 164.866 281.288 148.584 281.288 128.499C281.288 108.415 310.698 92.1328 346.976 92.1328C383.255 92.1328 412.664 108.415 412.664 128.499C412.664 148.584 383.255 164.866 346.976 164.866Z" fill="white"/>
<path d="M285.121 162.443C262.447 162.443 244.066 152.266 244.066 139.713C244.066 127.161 262.447 116.984 285.121 116.984C307.795 116.984 326.176 127.161 326.176 139.713C326.176 152.266 307.795 162.443 285.121 162.443Z" fill="white"/>
<path d="M229.832 162.443C207.158 162.443 188.777 152.266 188.777 139.713C188.777 127.161 207.158 116.984 229.832 116.984C252.506 116.984 270.887 127.161 270.887 139.713C270.887 152.266 252.506 162.443 229.832 162.443Z" fill="white"/>
<path d="M186.039 162.443C163.365 162.443 144.984 152.266 144.984 139.713C144.984 127.161 163.365 116.984 186.039 116.984C208.713 116.984 227.094 127.161 227.094 139.713C227.094 152.266 208.713 162.443 186.039 162.443Z" fill="white"/>
<path d="M262.404 149.107C229.602 149.107 203.011 134.385 203.011 116.225C203.011 98.0653 229.602 83.3438 262.404 83.3438C295.206 83.3438 321.797 98.0653 321.797 116.225C321.797 134.385 295.206 149.107 262.404 149.107Z" fill="white"/>
<path d="M-248.703 222.25V111.369C-226.732 116.446 -158.032 125.078 -59.0047 118.985C64.7797 111.369 65.45 92.7765 154.602 91.8805C243.753 90.9845 361.505 111.145 508.527 118.985C607.21 124.247 637.294 122.519 641.695 120.282V118.985C642.439 119.405 642.54 119.853 641.695 120.282V222.25H-248.703Z" fill="white"/>
</g>
</svg>
