<svg width="768" height="355" viewBox="0 0 768 355" fill="none" xmlns="http://www.w3.org/2000/svg">
<mask id="mask0_3366_36038" style="mask-type:alpha" maskUnits="userSpaceOnUse" x="-352" y="0" width="1486" height="355">
<rect x="-352" width="1486" height="355" fill="#C4C4C4"/>
</mask>
<g mask="url(#mask0_3366_36038)">
<path d="M215.719 241.284C175.612 241.284 143.099 217.191 143.099 187.47C143.099 157.749 175.612 133.656 215.719 133.656C255.827 133.656 288.34 157.749 288.34 187.47C288.34 217.191 255.827 241.284 215.719 241.284Z" fill="#F0FAFE"/>
<path d="M147.335 237.689C122.268 237.689 101.947 222.631 101.947 204.055C101.947 185.48 122.268 170.422 147.335 170.422C172.402 170.422 192.723 185.48 192.723 204.055C192.723 222.631 172.402 237.689 147.335 237.689Z" fill="#F0FAFE"/>
<path d="M86.2137 237.689C61.1467 237.689 40.8259 222.631 40.8259 204.055C40.8259 185.48 61.1467 170.422 86.2137 170.422C111.281 170.422 131.602 185.48 131.602 204.055C131.602 222.631 111.281 237.689 86.2137 237.689Z" fill="#F0FAFE"/>
<path d="M37.7996 237.689C12.7326 237.689 -7.5882 222.631 -7.5882 204.055C-7.5882 185.48 12.7326 170.422 37.7996 170.422C62.8667 170.422 83.1875 185.48 83.1875 204.055C83.1875 222.631 62.8667 237.689 37.7996 237.689Z" fill="#F0FAFE"/>
<path d="M122.222 217.962C85.9581 217.962 56.5606 196.177 56.5606 169.305C56.5606 142.433 85.9581 120.648 122.222 120.648C158.485 120.648 187.883 142.433 187.883 169.305C187.883 196.177 158.485 217.962 122.222 217.962Z" fill="#F0FAFE"/>
<path d="M587.37 254.137C563.772 254.137 544.642 236.967 544.642 215.787C544.642 194.607 563.772 177.438 587.37 177.438C610.968 177.438 630.098 194.607 630.098 215.787C630.098 236.967 610.968 254.137 587.37 254.137Z" fill="#F4FBFF"/>
<path d="M541.589 234.418C517.991 234.418 498.861 217.248 498.861 196.068C498.861 174.889 517.991 157.719 541.589 157.719C565.186 157.719 584.316 174.889 584.316 196.068C584.316 217.248 565.186 234.418 541.589 234.418Z" fill="#F4FBFF"/>
<path d="M652.073 259.067C628.475 259.067 609.345 241.897 609.345 220.717C609.345 199.537 628.475 182.367 652.073 182.367C675.671 182.367 694.801 199.537 694.801 220.717C694.801 241.897 675.671 259.067 652.073 259.067Z" fill="#F4FBFF"/>
<path d="M708.229 249.207C684.631 249.207 665.501 232.037 665.501 210.858C665.501 189.678 684.631 172.508 708.229 172.508C731.827 172.508 750.957 189.678 750.957 210.858C750.957 232.037 731.827 249.207 708.229 249.207Z" fill="#F4FBFF"/>
<path d="M591.034 208.664C563.728 208.664 541.592 189.042 541.592 164.836C541.592 140.63 563.728 121.008 591.034 121.008C618.341 121.008 640.477 140.63 640.477 164.836C640.477 189.042 618.341 208.664 591.034 208.664Z" fill="#F4FBFF"/>
<path d="M519.616 232.775C489.613 232.775 465.29 211.067 465.29 184.29C465.29 157.512 489.613 135.805 519.616 135.805C549.619 135.805 573.941 157.512 573.941 184.29C573.941 211.067 549.619 232.775 519.616 232.775Z" fill="#F4FBFF"/>
<path d="M630.093 220.92C610.463 220.92 594.55 206.637 594.55 189.019C594.55 171.4 610.463 157.117 630.093 157.117C649.723 157.117 665.637 171.4 665.637 189.019C665.637 206.637 649.723 220.92 630.093 220.92Z" fill="#F4FBFF"/>
<path d="M738.748 238.801C707.059 238.801 681.37 215.745 681.37 187.303C681.37 158.861 707.059 135.805 738.748 135.805C770.436 135.805 796.125 158.861 796.125 187.303C796.125 215.745 770.436 238.801 738.748 238.801Z" fill="#F4FBFF"/>
<path d="M668.302 208.415C634.163 208.415 606.487 183.576 606.487 152.934C606.487 122.293 634.163 97.4531 668.302 97.4531C702.442 97.4531 730.117 122.293 730.117 152.934C730.117 183.576 702.442 208.415 668.302 208.415Z" fill="#F4FBFF"/>
<path d="M573.775 255.532C539.635 255.532 511.96 230.693 511.96 200.051C511.96 169.41 539.635 144.57 573.775 144.57C607.914 144.57 635.59 169.41 635.59 200.051C635.59 230.693 607.914 255.532 573.775 255.532Z" fill="#F4FBFF"/>
<path d="M72.1638 344.854C34.9038 344.854 4.69867 317.744 4.69867 284.302C4.69867 250.86 34.9038 223.75 72.1638 223.75C109.424 223.75 139.629 250.86 139.629 284.302C139.629 317.744 109.424 344.854 72.1638 344.854Z" fill="#F0FAFE"/>
<path d="M-0.121368 313.714C-37.3813 313.714 -67.5865 286.604 -67.5865 253.162C-67.5865 219.72 -37.3813 192.609 -0.121368 192.609C37.1386 192.609 67.3438 219.72 67.3438 253.162C67.3438 286.604 37.1386 313.714 -0.121368 313.714Z" fill="#F0FAFE"/>
<path d="M174.324 352.636C137.064 352.636 106.859 325.526 106.859 292.083C106.859 258.641 137.064 231.531 174.324 231.531C211.584 231.531 241.789 258.641 241.789 292.083C241.789 325.526 211.584 352.636 174.324 352.636Z" fill="#F0FAFE"/>
<path d="M262.992 337.065C225.732 337.065 195.527 309.955 195.527 276.513C195.527 243.071 225.732 215.961 262.992 215.961C300.252 215.961 330.457 243.071 330.457 276.513C330.457 309.955 300.252 337.065 262.992 337.065Z" fill="#F0FAFE"/>
<path d="M77.9489 273.054C34.8338 273.054 -0.11795 242.071 -0.11795 203.851C-0.11795 165.631 34.8338 134.648 77.9489 134.648C121.064 134.648 156.016 165.631 156.016 203.851C156.016 242.071 121.064 273.054 77.9489 273.054Z" fill="#F0FAFE"/>
<path d="M-34.82 311.118C-82.1934 311.118 -120.597 276.843 -120.597 234.563C-120.597 192.283 -82.1934 158.008 -34.82 158.008C12.5533 158.008 50.957 192.283 50.957 234.563C50.957 276.843 12.5533 311.118 -34.82 311.118Z" fill="#F0FAFE"/>
<path d="M139.621 292.398C108.626 292.398 83.4995 269.846 83.4995 242.027C83.4995 214.208 108.626 191.656 139.621 191.656C170.616 191.656 195.742 214.208 195.742 242.027C195.742 269.846 170.616 292.398 139.621 292.398Z" fill="#F0FAFE"/>
<path d="M311.181 320.634C261.147 320.634 220.585 284.229 220.585 239.321C220.585 194.413 261.147 158.008 311.181 158.008C361.216 158.008 401.777 194.413 401.777 239.321C401.777 284.229 361.216 320.634 311.181 320.634Z" fill="#F0FAFE"/>
<path d="M199.952 272.657C146.047 272.657 102.349 233.436 102.349 185.055C102.349 136.674 146.047 97.4531 199.952 97.4531C253.856 97.4531 297.555 136.674 297.555 185.055C297.555 233.436 253.856 272.657 199.952 272.657Z" fill="#F0FAFE"/>
<path d="M50.698 347.047C-3.2065 347.047 -46.9047 307.827 -46.9047 259.446C-46.9047 211.064 -3.2065 171.844 50.698 171.844C104.603 171.844 148.301 211.064 148.301 259.446C148.301 307.827 104.603 347.047 50.698 347.047Z" fill="#F0FAFE"/>
<path d="M449.044 201.09C471.701 201.09 490.069 185.951 490.069 167.276C490.069 148.6 471.701 133.461 449.044 133.461C426.387 133.461 408.02 148.6 408.02 167.276C408.02 185.951 426.387 201.09 449.044 201.09Z" fill="#F4FBFF"/>
<path d="M487.676 198.839C501.836 198.839 513.316 189.376 513.316 177.704C513.316 166.032 501.836 156.57 487.676 156.57C473.515 156.57 462.035 166.032 462.035 177.704C462.035 189.376 473.515 198.839 487.676 198.839Z" fill="#F4FBFF"/>
<path d="M522.203 198.839C536.364 198.839 547.843 189.376 547.843 177.704C547.843 166.032 536.364 156.57 522.203 156.57C508.042 156.57 496.562 166.032 496.562 177.704C496.562 189.376 508.042 198.839 522.203 198.839Z" fill="#F4FBFF"/>
<path d="M549.554 198.839C563.715 198.839 575.195 189.376 575.195 177.704C575.195 166.032 563.715 156.57 549.554 156.57C535.394 156.57 523.914 166.032 523.914 177.704C523.914 189.376 535.394 198.839 549.554 198.839Z" fill="#F4FBFF"/>
<path d="M501.863 186.437C522.349 186.437 538.956 172.749 538.956 155.863C538.956 138.978 522.349 125.289 501.863 125.289C481.377 125.289 464.77 138.978 464.77 155.863C464.77 172.749 481.377 186.437 501.863 186.437Z" fill="#F4FBFF"/>
<path d="M377.056 249.015C337.301 249.015 305.073 222.452 305.073 189.683C305.073 156.915 337.301 130.352 377.056 130.352C416.811 130.352 449.039 156.915 449.039 189.683C449.039 222.452 416.811 249.015 377.056 249.015Z" fill="white"/>
<path d="M309.272 245.063C284.426 245.063 264.283 228.461 264.283 207.981C264.283 187.501 284.426 170.898 309.272 170.898C334.119 170.898 354.262 187.501 354.262 207.981C354.262 228.461 334.119 245.063 309.272 245.063Z" fill="white"/>
<path d="M248.686 245.063C223.84 245.063 203.697 228.461 203.697 207.981C203.697 187.501 223.84 170.898 248.686 170.898C273.533 170.898 293.676 187.501 293.676 207.981C293.676 228.461 273.533 245.063 248.686 245.063Z" fill="white"/>
<path d="M211.056 245.178C180.494 245.178 155.718 224.748 155.718 199.546C155.718 174.344 180.494 153.914 211.056 153.914C241.619 153.914 266.395 174.344 266.395 199.546C266.395 224.748 241.619 245.178 211.056 245.178Z" fill="white"/>
<path d="M284.376 223.308C248.431 223.308 219.292 199.289 219.292 169.662C219.292 140.034 248.431 116.016 284.376 116.016C320.322 116.016 349.461 140.034 349.461 169.662C349.461 199.289 320.322 223.308 284.376 223.308Z" fill="white"/>
<path d="M24.1087 247.47C-7.51436 247.47 -33.1499 228.473 -33.1499 205.039C-33.1499 181.606 -7.51436 162.609 24.1087 162.609C55.7317 162.609 81.3672 181.606 81.3672 205.039C81.3672 228.473 55.7317 247.47 24.1087 247.47Z" fill="white"/>
<path d="M-29.81 244.647C-49.5744 244.647 -65.5966 232.774 -65.5966 218.128C-65.5966 203.482 -49.5744 191.609 -29.81 191.609C-10.0456 191.609 5.97656 203.482 5.97656 218.128C5.97656 232.774 -10.0456 244.647 -29.81 244.647Z" fill="white"/>
<path d="M-49.6111 229.087C-78.2036 229.087 -101.382 211.911 -101.382 190.723C-101.382 169.535 -78.2036 152.359 -49.6111 152.359C-21.0186 152.359 2.16016 169.535 2.16016 190.723C2.16016 211.911 -21.0186 229.087 -49.6111 229.087Z" fill="white"/>
<path d="M151.619 206.574C130.934 205.235 114.972 191.723 115.966 176.393C116.961 161.063 134.536 149.722 155.222 151.06C175.907 152.399 191.869 165.912 190.875 181.241C189.88 196.571 172.305 207.913 151.619 206.574Z" fill="white"/>
<path d="M116.469 202.439C103.54 201.602 93.5638 193.157 94.1855 183.576C94.8072 173.995 105.792 166.906 118.72 167.743C131.648 168.58 141.625 177.025 141.003 186.606C140.382 196.187 129.397 203.276 116.469 202.439Z" fill="white"/>
<path d="M84.9452 200.392C72.0169 199.555 62.0404 191.11 62.6621 181.529C63.2838 171.948 74.2683 164.859 87.1966 165.696C100.125 166.533 110.101 174.978 109.48 184.559C108.858 194.14 97.8736 201.229 84.9452 200.392Z" fill="white"/>
<path d="M59.9765 198.775C47.0481 197.938 37.0716 189.493 37.6933 179.912C38.3151 170.331 49.2995 163.242 62.2279 164.079C75.1562 164.915 85.1327 173.361 84.511 182.942C83.8893 192.523 72.9048 199.612 59.9765 198.775Z" fill="white"/>
<path d="M104.175 197.01C85.472 195.799 71.0393 183.582 71.9387 169.721C72.8381 155.861 88.729 145.606 107.432 146.816C126.135 148.027 140.568 160.244 139.668 174.105C138.769 187.965 122.878 198.22 104.175 197.01Z" fill="white"/>
<path d="M85.2047 218.64C71.5555 215.162 62.4413 204.703 64.8476 195.28C67.254 185.856 80.2695 181.037 93.9187 184.515C107.568 187.993 116.682 198.452 114.276 207.875C111.869 217.298 98.8539 222.118 85.2047 218.64Z" fill="white"/>
<path d="M64.7129 206.009C56.1821 203.835 50.4858 197.299 51.9897 191.409C53.4937 185.52 61.6284 182.507 70.1592 184.681C78.6899 186.855 84.3863 193.392 82.8823 199.281C81.3784 205.171 73.2436 208.183 64.7129 206.009Z" fill="white"/>
<path d="M43.9082 200.704C35.3775 198.531 29.6811 191.994 31.185 186.104C32.689 180.215 40.8237 177.203 49.3545 179.376C57.8852 181.55 63.5816 188.087 62.0776 193.977C60.5737 199.866 52.439 202.878 43.9082 200.704Z" fill="white"/>
<path d="M27.4316 196.509C18.9009 194.335 13.2045 187.799 14.7085 181.909C16.2124 176.02 24.3471 173.007 32.8779 175.181C41.4087 177.355 47.105 183.892 45.6011 189.781C44.0971 195.671 35.9624 198.683 27.4316 196.509Z" fill="white"/>
<path d="M57.7598 197.574C45.4186 194.43 37.1779 184.973 39.3536 176.453C41.5293 167.933 53.2976 163.575 65.6387 166.72C77.9799 169.865 86.2206 179.321 84.0449 187.841C81.8692 196.362 70.101 200.719 57.7598 197.574Z" fill="white"/>
<path d="M733.412 217.884C763.938 217.884 788.684 199.547 788.684 176.927C788.684 154.306 763.938 135.969 733.412 135.969C702.887 135.969 678.141 154.306 678.141 176.927C678.141 199.547 702.887 217.884 733.412 217.884Z" fill="white"/>
<path d="M785.459 215.15C804.537 215.15 820.004 203.689 820.004 189.552C820.004 175.414 804.537 163.953 785.459 163.953C766.38 163.953 750.914 175.414 750.914 189.552C750.914 203.689 766.38 215.15 785.459 215.15Z" fill="white"/>
<path d="M804.576 200.136C832.177 200.136 854.551 183.556 854.551 163.103C854.551 142.65 832.177 126.07 804.576 126.07C776.976 126.07 754.602 142.65 754.602 163.103C754.602 183.556 776.976 200.136 804.576 200.136Z" fill="white"/>
<path d="M668.072 284.573C605.24 284.573 554.305 256.47 554.305 221.802C554.305 187.135 605.24 159.031 668.072 159.031C730.904 159.031 781.84 187.135 781.84 221.802C781.84 256.47 730.904 284.573 668.072 284.573Z" fill="white"/>
<path d="M560.942 280.386C521.672 280.386 489.838 262.821 489.838 241.154C489.838 219.487 521.672 201.922 560.942 201.922C600.212 201.922 632.047 219.487 632.047 241.154C632.047 262.821 600.212 280.386 560.942 280.386Z" fill="white"/>
<path d="M465.184 280.386C425.914 280.386 394.08 262.821 394.08 241.154C394.08 219.487 425.914 201.922 465.184 201.922C504.454 201.922 536.289 219.487 536.289 241.154C536.289 262.821 504.454 280.386 465.184 280.386Z" fill="white"/>
<path d="M389.345 280.386C350.075 280.386 318.24 262.821 318.24 241.154C318.24 219.487 350.075 201.922 389.345 201.922C428.615 201.922 460.449 219.487 460.449 241.154C460.449 262.821 428.615 280.386 389.345 280.386Z" fill="white"/>
<path d="M521.596 257.37C464.786 257.37 418.732 231.96 418.732 200.615C418.732 169.27 464.786 143.859 521.596 143.859C578.407 143.859 624.461 169.27 624.461 200.615C624.461 231.96 578.407 257.37 521.596 257.37Z" fill="white"/>
<path d="M-363.609 383.615V192.227C-325.556 200.991 -206.573 215.889 -35.064 205.373C179.322 192.227 180.483 160.136 334.888 158.589C489.293 157.042 693.231 191.84 947.863 205.373C1118.78 214.456 1170.88 211.473 1178.5 207.612V205.373C1179.79 206.099 1179.97 206.872 1178.5 207.612V383.615H-363.609Z" fill="white"/>
</g>
</svg>
